<svg id="Layer_1" height="512" viewBox="0 0 512 512" width="512" xmlns="http://www.w3.org/2000/svg" xmlns:xlink="http://www.w3.org/1999/xlink" data-name="Layer 1"><linearGradient id="linear-gradient" gradientUnits="userSpaceOnUse" x1="256" x2="256" y1="473.58" y2="48.931"><stop offset=".322" stop-color="#3f51b5"/><stop offset=".466" stop-color="#3f51b5"/><stop offset=".752" stop-color="#3f51b5"/><stop offset=".898" stop-color="#3f51b5"/></linearGradient><linearGradient id="linear-gradient-2" x1="220.617" x2="220.617" xlink:href="#linear-gradient" y1="473.58" y2="48.93"/><linearGradient id="linear-gradient-3" x1="229.975" x2="229.975" xlink:href="#linear-gradient" y1="473.58" y2="48.931"/><linearGradient id="linear-gradient-4" x1="290.408" x2="290.408" xlink:href="#linear-gradient" y1="473.579" y2="48.932"/><linearGradient id="linear-gradient-5" x1="221.592" x2="221.592" xlink:href="#linear-gradient" y1="473.579" y2="48.932"/><linearGradient id="linear-gradient-6" xlink:href="#linear-gradient" y1="473.58" y2="48.932"/><path d="m370.837 317.585h-65.883v-27.208a80.7 80.7 0 0 0 31.846-64.221v-.02c.521.04 1.044.066 1.567.066a20.73 20.73 0 0 0 17.642-31.611v-50.417a99.886 99.886 0 0 0 -38.776-79.012v-12.343a42.867 42.867 0 0 0 -42.823-42.819h-36.82a42.867 42.867 0 0 0 -42.819 42.819v12.343a99.886 99.886 0 0 0 -38.771 79.012v49.232a5.939 5.939 0 0 0 .069.86 20.708 20.708 0 0 0 17.411 31.934c.577 0 1.151-.033 1.724-.081v.039a80.707 80.707 0 0 0 31.955 64.306v27.119h-66a75.684 75.684 0 0 0 -75.6 75.6v102.817a6 6 0 0 0 6 6h368.877a6 6 0 0 0 6-6v-102.816a75.684 75.684 0 0 0 -75.599-75.599zm14.5 101.012a7.05 7.05 0 1 1 -7.049 7.049 7.057 7.057 0 0 1 7.049-7.046zm-64.119-83.926a96.123 96.123 0 0 1 32.271 50l-26.253 14.729-12.459-10.3c3.499-23.385 5.462-42.986 6.441-54.429zm25.794-130.371a8.7 8.7 0 0 1 -5.316 9.245 8.819 8.819 0 0 1 -4.907.5l-.01-15.946a6.364 6.364 0 0 1 6.566.241 8.678 8.678 0 0 1 3.667 5.96zm-140.241-151.481a30.855 30.855 0 0 1 30.819-30.819h36.82a30.855 30.855 0 0 1 30.819 30.819v4.334a99.818 99.818 0 0 0 -98.458 0zm-31.571 161.192a8.811 8.811 0 0 1 -5.056-.464 8.7 8.7 0 0 1 -1.649-15.206 6.375 6.375 0 0 1 6.705-.16zm0-49.72v21.275a18.307 18.307 0 0 0 -7.209.157v-41.549a88 88 0 0 1 176.01 0v41.582a18.307 18.307 0 0 0 -7.234-.208l-.017-28.62a46.951 46.951 0 0 0 -46.887-46.838h-57.563a26.132 26.132 0 0 1 -5.321-.546 5.961 5.961 0 0 0 -2.088-.524 26.178 26.178 0 0 1 -17.3-16.481 6 6 0 1 0 -11.333 3.944 38.173 38.173 0 0 0 22.232 23.02v1.5a27.546 27.546 0 0 1 -27.516 27.516 15.787 15.787 0 0 0 -15.774 15.772zm12 61.869v-61.869a3.774 3.774 0 0 1 3.769-3.769 39.564 39.564 0 0 0 39.5-38.475q.906.043 1.821.043h57.571a34.934 34.934 0 0 1 34.887 34.848l.042 69.222a68.8 68.8 0 0 1 -137.592 0zm105.75 71.812v30.659a36.9 36.9 0 0 1 -73.8 0v-30.6a80.5 80.5 0 0 0 73.8-.058zm-102.16 36.692c.988 11.5 2.962 31.227 6.433 54.433l-12.46 10.3-26.252-14.729a96.127 96.127 0 0 1 32.279-50.004zm-41.762 58.447 25.823 14.489-19.409 16.051a15.882 15.882 0 0 0 -6-4.124v-21.48a29.73 29.73 0 0 0 -.414-4.936zm-24.028-61.439a63.51 63.51 0 0 1 16.163-2.087h37.163a108.135 108.135 0 0 0 -32.145 54.935 29.85 29.85 0 0 0 -21.181-15.757zm22.579 102.615a3.843 3.843 0 1 1 -3.842-3.843 3.847 3.847 0 0 1 3.842 3.843zm-70.015 55.713v-96.816a63.664 63.664 0 0 1 35.436-57v32.856a29.816 29.816 0 0 0 -23.092 29v21.2a15.83 15.83 0 1 0 12 .229v-21.424a17.769 17.769 0 1 1 35.537 0v21.71a15.832 15.832 0 1 0 17.043 26.135c3.851 16.31 9.112 31.721 15.043 44.11zm21.9-56a3.843 3.843 0 1 1 -3.843-3.843 3.847 3.847 0 0 1 3.838 3.843zm83.513 56c-7.957-14.721-14.949-35.8-19.128-57.727l35.519-29.373c4.179 26.025 10.274 59.17 18.909 87.1zm47.889 0c-10.222-31.649-17-71.593-21.269-99.352s-6.35-50.448-7.189-61.062h4.78a48.883 48.883 0 0 0 97.747 0h4.661c-.851 10.677-2.962 33.59-7.183 61.062-4.265 27.759-11.047 67.7-21.269 99.352zm62.862 0c8.635-27.933 14.73-61.079 18.909-87.1l35.524 29.377c-4.179 21.922-11.171 43.005-19.128 57.727zm140.713 0h-91.973c7.727-16.132 14.311-37.4 18.134-59.064a6 6 0 0 0 -2.085-5.666l-21.368-17.67 26.185-14.69a6 6 0 0 0 2.908-6.593l-.324-1.391a108.152 108.152 0 0 0 -32.243-55.339h37.162a63.891 63.891 0 0 1 8.114.535v77.6a19.017 19.017 0 1 0 12-.279v-74.58a63.7 63.7 0 0 1 43.485 60.321z" fill="url(#linear-gradient)"/><path d="m222.163 391.071a6 6 0 0 0 4.568-7.15l-.508-2.307a6 6 0 0 0 -11.723 2.586l.508 2.307a5.993 5.993 0 0 0 7.151 4.568z" fill="url(#linear-gradient-2)"/><path d="m230.433 400.718a6 6 0 1 0 -11.719 2.582l10.8 49.017a6 6 0 0 0 5.854 4.71 6.08 6.08 0 0 0 1.3-.141 6 6 0 0 0 4.568-7.151z" fill="url(#linear-gradient-3)"/><path d="m277.505 200.62a6 6 0 0 0 6-6 6.9 6.9 0 1 1 13.805 0 6 6 0 0 0 12 0 18.9 18.9 0 1 0 -37.805 0 6 6 0 0 0 6 6z" fill="url(#linear-gradient-4)"/><path d="m214.69 194.62a6.9 6.9 0 1 1 13.805 0 6 6 0 0 0 12 0 18.9 18.9 0 1 0 -37.805 0 6 6 0 0 0 12 0z" fill="url(#linear-gradient-5)"/><path d="m230.247 238.713a6 6 0 0 0 0 8.485 36.418 36.418 0 0 0 51.506 0 6 6 0 0 0 -8.485-8.485 24.42 24.42 0 0 1 -34.536 0 6 6 0 0 0 -8.485 0z" fill="url(#linear-gradient-6)"/></svg>